<?xml version="1.0" encoding="utf-8"?>
<!-- Generator: Adobe Illustrator 27.7.0, SVG Export Plug-In . SVG Version: 6.00 Build 0)  -->
<svg version="1.1" id="Layer_1" xmlns="http://www.w3.org/2000/svg" xmlns:xlink="http://www.w3.org/1999/xlink" x="0px" y="0px"
	 viewBox="0 0 960 1290" enable-background="new 0 0 960 1290" xml:space="preserve">
<g id="the-mountain">
	<g>
		<g>
			<path d="M654.2,225.2c4-5.5,10.6-15.4,10.6-20.7c0-7.5-6.1-13.5-13.5-13.5s-13.5,6.1-13.5,13.5c0,5.2,6.7,15.2,10.6,20.7h-37.5
				v20.4h83v-20.4H654.2z"/>
		</g>
	</g>
</g>
<g id="upper-bondry">
	<g>
		<g>
			<path d="M535.6,323c4-5.5,10.6-15.4,10.6-20.7c0-7.5-6.1-13.5-13.5-13.5s-13.5,6.1-13.5,13.5c0,5.2,6.7,15.2,10.6,20.7h-37.5
				v20.4h83V323H535.6z"/>
		</g>
	</g>
</g>
<g id="clawdd">
	<g>
		<g>
			<path d="M606,366.9c4-5.5,10.6-15.4,10.6-20.7c0-7.5-6.1-13.5-13.5-13.5s-13.5,6.1-13.5,13.5c0,5.2,6.7,15.2,10.6,20.7h-37.5
				v20.4h83v-20.4H606z"/>
		</g>
	</g>
</g>
<g id="cwm-tawe-view">
	<g>
		<g>
			<path d="M540.2,405.2c4-5.5,10.6-15.4,10.6-20.7c0-7.5-6.1-13.5-13.5-13.5s-13.5,6.1-13.5,13.5c0,5.2,6.7,15.2,10.6,20.7h-29.5
				v20.4h75v-20.4H540.2z"/>
		</g>
	</g>
</g>
<g id="rush-pasture">
	<g>
		<g>
			<path d="M625.4,459.8c4-5.5,10.6-15.4,10.6-20.7c0-7.5-6.1-13.5-13.5-13.5s-13.5,6.1-13.5,13.5c0,5.2,6.7,15.2,10.6,20.7h-20.5
				v32.7h45v-32.7H625.4z"/>
		</g>
	</g>
</g>
<g id="black-fields">
	<g>
		<g>
			<path d="M669.9,505.3c4-5.5,10.6-15.4,10.6-20.7c0-7.5-6.1-13.5-13.5-13.5s-13.5,6.1-13.5,13.5c0,5.2,6.7,15.2,10.6,20.7h-37.5
				v20.4h83v-20.4H669.9z"/>
		</g>
	</g>
</g>
<g id="grazed-oak-woodland">
	<g>
		<g>
			<path d="M744.4,575.7c4-5.5,10.6-15.4,10.6-20.7c0-7.5-6.1-13.5-13.5-13.5S728,547.6,728,555c0,5.2,6.7,15.2,10.6,20.7h-37.5
				v20.4h83v-20.4H744.4z"/>
		</g>
	</g>
</g>
<g id="mountain-ash">
	<g>
		<g>
			<path d="M466.1,399c4-5.5,10.6-15.4,10.6-20.7c0-7.5-6.1-13.5-13.5-13.5s-13.5,6.1-13.5,13.5c0,5.2,6.7,15.2,10.6,20.7h-37.5
				v20.4h70V399H466.1z"/>
		</g>
	</g>
</g>
<g id="valley-views">
	<g>
		<g>
			<path d="M395.6,354.6c4-5.5,10.6-15.4,10.6-20.7c0-7.5-6.1-13.5-13.5-13.5s-13.5,6.1-13.5,13.5c0,5.2,6.7,15.2,10.6,20.7h-17.5
				l2.1,28.1h41.9l1.5-28.1H395.6z"/>
		</g>
	</g>
</g>
<g id="sheep-grazed-woodland">
	<g>
		<g>
			<path d="M319,332.1c4-5.5,10.6-15.4,10.6-20.7c0-7.5-6.1-13.5-13.5-13.5s-13.5,6.1-13.5,13.5c0,5.2,6.7,15.2,10.6,20.7h-37.5
				v32.7h83v-32.7H319z"/>
		</g>
	</g>
</g>
<g id="beef-cattle">
	<g>
		<g>
			<path d="M302,436.3h-15.6c4-5.5,10.6-15.4,10.6-20.7c0-7.5-6.1-13.5-13.5-13.5s-13.5,6.1-13.5,13.5c0,5.2,6.7,15.2,10.6,20.7
				h-21.5l4.1,30.6H306L302,436.3z"/>
		</g>
	</g>
</g>
<g id="bluebells">
	<g>
		<g>
			<path d="M369.3,554.8c4-5.5,10.6-15.4,10.6-20.7c0-7.5-6.1-13.5-13.5-13.5s-13.5,6.1-13.5,13.5c0,5.2,6.7,15.2,10.6,20.7h-27.9
				v20.4H398v-20.4H369.3z"/>
		</g>
	</g>
</g>
<g id="lucome-oak">
	<g>
		<g>
			<path d="M496.7,624.6c4-5.5,10.6-15.4,10.6-20.7c0-7.5-6.1-13.5-13.5-13.5s-13.5,6.1-13.5,13.5c0,5.2,6.7,15.2,10.6,20.7h-37.5
				v31.3h83v-31.3H496.7z"/>
		</g>
	</g>
</g>
<g id="WW11-hideout">
	<g>
		<g>
			<path d="M441.4,596.1l-21.7,1.1c4-5.5,10.6-15.4,10.6-20.7c0-7.5-6.1-13.5-13.5-13.5s-13.5,6.1-13.5,13.5
				c0,5.2,6.7,15.2,10.6,20.7l-23.6-1.1l2,27h51.1L441.4,596.1z"/>
		</g>
	</g>
</g>
<g id="the-back-road">
	<g>
		<g>
			<path d="M337.4,624.6c4-5.5,10.6-15.4,10.6-20.7c0-7.5-6.1-13.5-13.5-13.5s-13.5,6.1-13.5,13.5c0,5.2,6.7,15.2,10.6,20.7h-37.5
				v31.3h83v-31.3H337.4z"/>
		</g>
	</g>
</g>
<g id="estate-woodland">
	<g>
		<g>
			<path d="M332.8,747.3c4-5.5,10.6-15.4,10.6-20.7c0-7.5-6.1-13.5-13.5-13.5s-13.5,6.1-13.5,13.5c0,5.2,6.7,15.2,10.6,20.7h-37.5
				v20.4h83v-20.4H332.8z"/>
		</g>
	</g>
</g>
<g id="plas-cilybebyl">
	<g>
		<g>
			<path d="M413.8,714.6c4-5.5,10.6-15.4,10.6-20.7c0-7.5-6.1-13.5-13.5-13.5s-13.5,6.1-13.5,13.5c0,5.2,6.7,15.2,10.6,20.7h-37.5
				v12.8h83v-12.8H413.8z"/>
		</g>
	</g>
</g>
<g id="the-weir">
	<g>
		<g>
			<path d="M501.1,703.5c4-5.5,10.6-15.4,10.6-20.7c0-7.5-6.1-13.5-13.5-13.5s-13.5,6.1-13.5,13.5c0,5.2,6.7,15.2,10.6,20.7
				l-26.4-0.6v20.4h57.7v-20.4L501.1,703.5z"/>
		</g>
	</g>
</g>
<g id="river">
	<g>
		<g>
			<path d="M562.1,738.1c4-5.5,10.6-15.4,10.6-20.7c0-7.5-6.1-13.5-13.5-13.5s-13.5,6.1-13.5,13.5c0,5.2,6.7,15.2,10.6,20.7h-13.9
				v16.3h37.5v-16.3H562.1z"/>
		</g>
	</g>
</g>
<g id="queen-elizabeth-coin">
	<g>
		<g>
			<path d="M699.5,657.3c4-5.5,10.6-15.4,10.6-20.7c0-7.5-6.1-13.5-13.5-13.5s-13.5,6.1-13.5,13.5c0,5.2,6.7,15.2,10.6,20.7h-37.5
				v20.4h83v-20.4H699.5z"/>
		</g>
	</g>
</g>
<g id="tarmyard-cottages">
	<g>
		<g>
			<path d="M650.4,766.2c4-5.5,10.6-15.4,10.6-20.7c0-7.5-6.1-13.5-13.5-13.5S634,738,634,745.5c0,5.2,6.7,15.2,10.6,20.7h-37.5
				v20.4h83v-20.4H650.4z"/>
		</g>
	</g>
</g>
<g id="holiday-cottages">
	<g>
		<g>
			<path d="M509.5,798.9c4-5.5,10.6-15.4,10.6-20.7c0-7.5-6.1-13.5-13.5-13.5s-13.5,6.1-13.5,13.5c0,5.2,6.7,15.2,10.6,20.7h-45.9
				v20.4H522v-20.4H509.5z"/>
		</g>
	</g>
</g>
<g id="parkland">
	<g>
		<g>
			<path d="M346.6,829c4-5.5,10.6-15.4,10.6-20.7c0-7.5-6.1-13.5-13.5-13.5s-13.5,6.1-13.5,13.5c0,5.2,6.7,15.2,10.6,20.7h-37.5
				v20.4h83V829H346.6z"/>
		</g>
	</g>
</g>
<g id="allt-y-grug">
	<g>
		<g>
			<path d="M271,864.2c4-5.5,10.6-15.4,10.6-20.7c0-7.5-6.1-13.5-13.5-13.5s-13.5,6.1-13.5,13.5c0,5.2,6.7,15.2,10.6,20.7h-37.5
				v20.4h83v-20.4H271z"/>
		</g>
	</g>
</g>
<g id="farm-drive">
	<g>
		<g>
			<path d="M499.6,899.5c4-5.5,10.6-15.4,10.6-20.7c0-7.5-6.1-13.5-13.5-13.5s-13.5,6.1-13.5,13.5c0,5.2,6.7,15.2,10.6,20.7h-37.5
				v20.4h83v-20.4H499.6z"/>
		</g>
	</g>
</g>
<g id="green-energy">
	<g>
		<g>
			<path d="M661.4,877.5c4-5.5,10.6-15.4,10.6-20.7c0-7.5-6.1-13.5-13.5-13.5s-13.5,6.1-13.5,13.5c0,5.2,6.7,15.2,10.6,20.7h-37.5
				v35.7h83v-35.7H661.4z"/>
		</g>
	</g>
</g>
<g id="lodge-field">
	<g>
		<g>
			<path d="M330.3,910.7c4-5.5,10.6-15.4,10.6-20.7c0-7.5-6.1-13.5-13.5-13.5s-13.5,6.1-13.5,13.5c0,5.2,6.7,15.2,10.6,20.7H287
				v20.4h83v-20.4H330.3z"/>
		</g>
	</g>
</g>
<g id="church-road">
	<g>
		<g>
			<path d="M227.1,922.4c4-5.5,10.6-15.4,10.6-20.7c0-7.5-6.1-13.5-13.5-13.5s-13.5,6.1-13.5,13.5c0,5.2,6.7,15.2,10.6,20.7h-37.5
				v20.4h83v-20.4H227.1z"/>
		</g>
	</g>
</g>
<g id="enterance-to-plas-farm">
	<g>
		<g>
			<path d="M418.1,1024.6c4-5.5,10.6-15.4,10.6-20.7c0-7.5-6.1-13.5-13.5-13.5s-13.5,6.1-13.5,13.5c0,5.2,6.7,15.2,10.6,20.7h-37.5
				v33.2h83v-33.2H418.1z"/>
		</g>
	</g>
</g>
</svg>
